<svg xmlns="http://www.w3.org/2000/svg"><image x="100" y="100"  width="100" height="100" href="wall.png"></image><image x="200" y="100"  width="100" height="100" href="wall.png"></image><image x="300" y="100"  width="100" height="100" href="wall.png"></image><image x="400" y="100"  width="100" height="100" href="wall.png"></image><image x="500" y="100"  width="100" height="100" href="wall.png"></image><image x="600" y="100"  width="100" height="100" href="wall.png"></image><image x="700" y="100"  width="100" height="100" href="wall.png"></image><image x="800" y="100"  width="100" height="100" href="wall.png"></image><image x="900" y="100"  width="100" height="100" href="wall.png"></image><image x="1000" y="100"  width="100" height="100" href="wall.png"></image><image x="1100" y="100"  width="100" height="100" href="wall.png"></image><image x="1200" y="100"  width="100" height="100" href="wall.png"></image><image x="1300" y="100"  width="100" height="100" href="wall.png"></image><image x="1400" y="100"  width="100" height="100" href="wall.png"></image><image x="100" y="200"  width="100" height="100" href="wall.png"></image><image x="200" y="200"  width="100" height="100" href="free.png"></image><image x="300" y="200"  width="100" height="100" href="free.png"></image><image x="400" y="200"  width="100" height="100" href="free.png"></image><image x="500" y="200"  width="100" height="100" href="wall.png"></image><image x="600" y="200"  width="100" height="100" href="free.png"></image><image x="700" y="200"  width="100" height="100" href="free.png"></image><image x="800" y="200"  width="100" height="100" href="wall.png"></image><image x="900" y="200"  width="100" height="100" href="wall.png"></image><image x="1000" y="200"  width="100" height="100" href="wall.png"></image><image x="1100" y="200"  width="100" height="100" href="wall.png"></image><image x="1200" y="200"  width="100" height="100" href="free.png"></image><image x="1300" y="200"  width="100" height="100" href="free.png"></image><image x="1400" y="200"  width="100" height="100" href="wall.png"></image><image x="100" y="300"  width="100" height="100" href="wall.png"></image><image x="200" y="300"  width="100" height="100" href="free.png"></image><image x="300" y="300"  width="100" height="100" href="wall.png"></image><image x="400" y="300"  width="100" height="100" href="wall.png"></image><image x="500" y="300"  width="100" height="100" href="wall.png"></image><image x="600" y="300"  width="100" height="100" href="wall.png"></image><image x="700" y="300"  width="100" height="100" href="free.png"></image><image x="800" y="300"  width="100" height="100" href="Dark_Wanderer.png"></image><image x="900" y="300"  width="100" height="100" href="wall.png"></image><image x="1000" y="300"  width="100" height="100" href="wall.png"></image><image x="1100" y="300"  width="100" height="100" href="free.png"></image><image x="1200" y="300"  width="100" height="100" href="free.png"></image><image x="1300" y="300"  width="100" height="100" href="wall.png"></image><image x="1400" y="300"  width="100" height="100" href="free.png"></image><image x="100" y="400"  width="100" height="100" href="wall.png"></image><image x="200" y="400"  width="100" height="100" href="free.png"></image><image x="300" y="400"  width="100" height="100" href="free.png"></image><image x="400" y="400"  width="100" height="100" href="free.png"></image><image x="500" y="400"  width="100" height="100" href="wall.png"></image><image x="600" y="400"  width="100" height="100" href="free.png"></image><image x="700" y="400"  width="100" height="100" href="free.png"></image><image x="800" y="400"  width="100" height="100" href="wall.png"></image><image x="900" y="400"  width="100" height="100" href="wall.png"></image><image x="1000" y="400"  width="100" height="100" href="free.png"></image><image x="1100" y="400"  width="100" height="100" href="free.png"></image><image x="1200" y="400"  width="100" height="100" href="wall.png"></image><image x="1300" y="400"  width="100" height="100" href="free.png"></image><image x="1400" y="400"  width="100" height="100" href="free.png"></image><image x="100" y="500"  width="100" height="100" href="wall.png"></image><image x="200" y="500"  width="100" height="100" href="wall.png"></image><image x="300" y="500"  width="100" height="100" href="wall.png"></image><image x="400" y="500"  width="100" height="100" href="free.png"></image><image x="500" y="500"  width="100" height="100" href="wall.png"></image><image x="600" y="500"  width="100" height="100" href="free.png"></image><image x="700" y="500"  width="100" height="100" href="wall.png"></image><image x="800" y="500"  width="100" height="100" href="wall.png"></image><image x="900" y="500"  width="100" height="100" href="free.png"></image><image x="1000" y="500"  width="100" height="100" href="free.png"></image><image x="1100" y="500"  width="100" height="100" href="wall.png"></image><image x="1200" y="500"  width="100" height="100" href="free.png"></image><image x="1300" y="500"  width="100" height="100" href="free.png"></image><image x="1400" y="500"  width="100" height="100" href="free.png"></image><image x="100" y="600"  width="100" height="100" href="wall.png"></image><image x="200" y="600"  width="100" height="100" href="free.png"></image><image x="300" y="600"  width="100" height="100" href="free.png"></image><image x="400" y="600"  width="100" height="100" href="free.png"></image><image x="500" y="600"  width="100" height="100" href="free.png"></image><image x="600" y="600"  width="100" height="100" href="free.png"></image><image x="700" y="600"  width="100" height="100" href="free.png"></image><image x="800" y="600"  width="100" height="100" href="free.png"></image><image x="900" y="600"  width="100" height="100" href="free.png"></image><image x="1000" y="600"  width="100" height="100" href="free.png"></image><image x="1100" y="600"  width="100" height="100" href="wall.png"></image><image x="1200" y="600"  width="100" height="100" href="free.png"></image><image x="1300" y="600"  width="100" height="100" href="free.png"></image><image x="1400" y="600"  width="100" height="100" href="free.png"></image><image x="100" y="700"  width="100" height="100" href="wall.png"></image><image x="200" y="700"  width="100" height="100" href="wall.png"></image><image x="300" y="700"  width="100" height="100" href="wall.png"></image><image x="400" y="700"  width="100" height="100" href="wall.png"></image><image x="500" y="700"  width="100" height="100" href="wall.png"></image><image x="600" y="700"  width="100" height="100" href="wall.png"></image><image x="700" y="700"  width="100" height="100" href="wall.png"></image><image x="800" y="700"  width="100" height="100" href="wall.png"></image><image x="900" y="700"  width="100" height="100" href="wall.png"></image><image x="1000" y="700"  width="100" height="100" href="free.png"></image><image x="1100" y="700"  width="100" height="100" href="free.png"></image><image x="1200" y="700"  width="100" height="100" href="free.png"></image><image x="1300" y="700"  width="100" height="100" href="free.png"></image><image x="1400" y="700"  width="100" height="100" href="free.png"></image></svg>